<?xml version="1.0" standalone="no"?>
<!DOCTYPE svg PUBLIC "-//W3C//DTD SVG 1.1//EN" "http://www.w3.org/Graphics/SVG/1.1/DTD/svg11.dtd" >
<svg xmlns="http://www.w3.org/2000/svg">
<metadata>
Created by FontPrep 20130207 at Mon Jun  2 20:41:02 2014
 By Chris W. Burke
Copyright Copr. 1999, Luc[as] de Groot &#60;www.FontFabrik.com&#62;. All rights reserved. Published by FontShop International &#60;www.fontfont.de&#62;
</metadata>
<defs>
<font id="cb5866c828067fb8e4f2cf6d633b920e" horiz-adv-x='1024' >
  <font-face 
    font-family="TheSans-B6SemiBold"
    font-weight="600"
    font-stretch="normal"
    units-per-em="2048"
    panose-1="2 0 7 3 0 0 0 0 0 0"
    ascent="1638"
    descent="-410"
    x-height="1018"
    cap-height="1382"
    bbox="-123 -520 2098.6 1761"
    underline-thickness="176"
    underline-position="-419"
    unicode-range="U+0020-FFFD"
  />
<missing-glyph 
 />
    <glyph glyph-name=".notdef" unicode="&#xfffd;" 
 />
    <glyph glyph-name=".null" horiz-adv-x="0" 
 />
    <glyph glyph-name="nonmarkingreturn" horiz-adv-x="681" 
 />
    <glyph glyph-name="space" unicode=" " horiz-adv-x="446" 
 />
    <glyph glyph-name="exclam" unicode="!" horiz-adv-x="655" 
d="M485 117q0 -57 -40 -97t-99 -40t-100 40t-41 96q0 58 41 97t100 39t99 -39t40 -96zM475 1444l-35 -1082h-186l-37 1082h258z" />
    <glyph glyph-name="quotedbl" unicode="&#x22;" horiz-adv-x="784" 
d="M324 1436l-31 -494h-162l-33 494h226zM686 1436l-31 -494h-163l-31 494h225z" />
    <glyph glyph-name="numbersign" unicode="#" 
d="M721 829h-281l-32 -315h282zM1067 829h-184l-31 -315h166v-152h-182l-39 -362h-162l39 362h-283l-37 -362h-164l39 362h-170v152h187l30 315h-167v150h184l37 352h164l-39 -352h282l37 352h162l-37 -352h168v-150z" />
    <glyph glyph-name="dollar" unicode="$" 
d="M954 418q0 -136 -92 -240t-250 -135v-217h-159v207q-125 0 -252 26l18 199q125 -43 248 -43t191 45t67 123q0 78 -58 122q-57 44 -141 74q-84 31 -167 67t-141 112t-58 198t89 220t236 122v197h160v-186q121 -4 215 -25l-20 -188q-111 34 -229 34t-173 -46t-55 -106
t42 -101t105 -65q62 -24 138 -56t139 -70q63 -36 105 -106t42 -162z" />
    <glyph glyph-name="percent" unicode="%" horiz-adv-x="1546" 
d="M522 1035q0 175 -133 175q-57 0 -94 -48t-37 -128q0 -186 135 -186q55 0 92 49t37 138zM1288 308q0 175 -127 175q-63 0 -100 -48t-37 -130q0 -184 135 -184q55 0 92 49t37 138zM692 1043q0 -151 -87 -243t-229 -93q-142 0 -216 83t-74 230q0 148 87 240t227 92t216 -79
t76 -230zM1350 1272l-1020 -1315l-142 98l1022 1315zM1460 316q0 -150 -88 -243t-229 -93t-216 82t-75 230t88 240t228 92t216 -79t76 -229z" />
    <glyph glyph-name="ampersand" unicode="&#x26;" horiz-adv-x="1630" 
d="M332 410q0 -102 74 -173t194 -71q192 0 342 123q-236 188 -434 399q-176 -143 -176 -278zM709 1198q0 66 -37 106t-106 40q-68 0 -110 -42q-42 -40 -42 -104q0 -98 135 -252q82 70 121 128t39 124zM563 -20q-221 0 -339 114t-118 287q0 129 70 230t205 206
q-102 119 -143 201t-41 168q0 137 102 230q101 93 273 93q172 -1 262 -79t90 -209q0 -203 -250 -400q225 -223 418 -375v-2q143 209 131 482h217q10 -344 -187 -600q148 -117 275 -201l-144 -168q-172 121 -284 211q-231 -188 -537 -188z" />
    <glyph glyph-name="quotesingle" unicode="'" horiz-adv-x="423" 
d="M324 1436l-31 -494h-162l-33 494h226z" />
    <glyph glyph-name="parenleft" unicode="(" horiz-adv-x="622" 
d="M127 585q0 544 303 1021l158 -76q-246 -428 -246 -945t252 -941l-166 -76q-301 473 -301 1017z" />
    <glyph glyph-name="parenright" unicode=")" horiz-adv-x="622" 
d="M504 589q0 -544 -303 -1021l-158 74q248 430 248 944t-250 942l166 78q297 -473 297 -1017z" />
    <glyph glyph-name="asterisk" unicode="*" horiz-adv-x="774" 
d="M694 1094l-80 -140l-180 138l29 -226h-160l27 226l-180 -138l-78 138l209 88l-209 88l80 137l180 -135l-29 225h160l-27 -225l180 135l78 -135l-209 -88z" />
    <glyph glyph-name="plus" unicode="+" 
d="M1042 518h-376v-399h-207v399h-375v182h375v398h207v-398h376v-182z" />
    <glyph glyph-name="comma" unicode="," horiz-adv-x="495" 
d="M244 264q88 0 129 -82t-13 -227t-215 -289l-92 82q178 193 88 303q-53 61 -19 137t122 76z" />
    <glyph glyph-name="hyphen" unicode="-" horiz-adv-x="679" 
d="M586 492h-492v176h492v-176z" />
    <glyph glyph-name="period" unicode="." horiz-adv-x="495" 
d="M393 125q0 -59 -43 -102t-102 -43t-103 43q-43 43 -43 102t43 102t103 43t102 -43q43 -43 43 -102z" />
    <glyph glyph-name="slash" unicode="/" horiz-adv-x="919" 
d="M924 1550l-717 -1880h-215l719 1880h213z" />
    <glyph glyph-name="zero" unicode="0" 
d="M803 668q1 280 -57 390t-185 109q-240 0 -239 -485q0 -284 54 -400t185 -116q242 0 242 502zM576 1352q224 0 343 -154t119 -514q0 -358 -139 -531t-359 -173t-337 158t-117 514q0 358 133 529t357 171z" />
    <glyph glyph-name="one" unicode="1" 
d="M1022 0h-877v197h347v909l-314 -123l-37 207l406 141h172v-1134h303v-197z" />
    <glyph glyph-name="two" unicode="2" 
d="M999 0h-886v178l252 246q213 211 279 310q67 100 67 196t-66 160t-180 63q-164 0 -293 -98l-49 192q180 105 390 105t324 -112q113 -112 113 -262t-68 -270t-261 -302l-209 -197v-4q135 6 401 6h186v-211z" />
    <glyph glyph-name="three" unicode="3" 
d="M979 414q0 -201 -156 -318t-417 -116q-154 0 -259 32l23 191q122 -39 266 -39t226 61t82 163t-80 159t-236 57q-86 0 -203 -10v172h51q440 0 441 225q1 84 -63 132t-193 48t-273 -71l-20 186q166 66 362 66t307 -89q110 -89 109 -233q0 -236 -244 -307l-2 -4
q121 -12 200 -99t79 -206z" />
    <glyph glyph-name="four" unicode="4" 
d="M666 496v616h-2l-400 -620q109 4 402 4zM1083 299h-204v-299h-217v299h-601l-18 180l539 852h297v-835h204v-197z" />
    <glyph glyph-name="five" unicode="5" 
d="M985 440q0 -209 -156 -335t-411 -125q-135 0 -250 26v201q124 -39 270 -39t227 66t81 180q0 113 -88 171q-87 58 -232 58t-233 -16v704h739v-207h-533v-309q29 2 97 2q233 -1 361 -105t128 -272z" />
    <glyph glyph-name="six" unicode="6" 
d="M581 158q116 0 178 72t62 186t-62 180t-177 66t-183 -72q-67 -72 -67 -174t66 -180t183 -78zM1042 453q0 -215 -129 -344t-347 -129t-344 146t-126 423q0 401 184 601t504 200q80 0 136 -7v-190q-72 12 -150 12q-352 0 -440 -385q-10 -51 -17 -92h2q101 154 305 154
t313 -110t109 -279z" />
    <glyph glyph-name="seven" unicode="7" 
d="M287 1116h-178v215h909v-188q-293 -551 -488 -1143h-251q219 631 485 1122q-160 -6 -477 -6z" />
    <glyph glyph-name="eight" unicode="8" 
d="M799 335q0 85 -65 139t-189 110q-107 -62 -163 -116t-56 -133t64 -129t172 -50q107 0 172 47t65 132zM772 1012q0 74 -56 121t-154 47t-152 -50q-56 -50 -56 -122t50 -120t169 -106q95 56 147 106t52 124zM1028 352q0 -172 -136 -272t-342 -100t-329 92t-123 247
q0 113 71 195t196 154q-115 63 -175 139q-59 76 -59 184q0 158 124 259q123 102 319 102t309 -91t112 -237q0 -102 -62 -178t-175 -146q126 -68 198 -146t72 -202z" />
    <glyph glyph-name="nine" unicode="9" 
d="M786 912q0 110 -65 186t-179 76t-176 -73t-62 -187t62 -180t175 -66t179 68q66 66 66 176zM1024 782q0 -406 -184 -604t-504 -196q-106 0 -174 14v194q96 -23 192 -22q354 0 426 362q17 76 19 91h-2q-102 -135 -300 -135t-307 111q-109 112 -108 288q0 213 131 340
t347 127t340 -142t124 -428z" />
    <glyph glyph-name="colon" unicode=":" horiz-adv-x="598" 
d="M471 125q0 -59 -43 -102t-102 -43t-103 43q-43 43 -43 102t43 102t103 43t102 -43q43 -43 43 -102zM471 715q0 -59 -43 -103t-102 -43q-59 0 -103 43q-43 42 -43 102t43 103t103 43t102 -43q43 -43 43 -102z" />
    <glyph glyph-name="semicolon" unicode=";" horiz-adv-x="598" 
d="M328 264q90 0 127 -94q51 -135 -66 -317q-59 -96 -162 -187l-92 82q178 193 86 303q-51 61 -17 137t124 76zM471 715q0 -59 -43 -103t-102 -43q-59 0 -103 43q-43 42 -43 102t43 103t103 43t102 -43q43 -43 43 -102z" />
    <glyph glyph-name="less" unicode="&#x3c;" 
d="M932 176l-141 -149l-652 591l649 590l142 -143l-510 -444z" />
    <glyph glyph-name="equal" unicode="=" 
d="M1014 336h-901v178h901v-178zM1014 702h-901v179h901v-179z" />
    <glyph glyph-name="greater" unicode="&#x3e;" 
d="M987 618l-649 -591l-141 143l510 446l-512 443l141 149z" />
    <glyph glyph-name="question" unicode="?" horiz-adv-x="917" 
d="M393 252q59 0 99 -39t40 -97t-39 -98q-39 -38 -99 -38t-100 40t-40 96q0 58 40 97t99 39zM807 1055q0 -132 -80 -226q-78 -87 -134 -137q-55 -49 -81 -97t-30 -100q-5 -52 16 -133h-213q-35 125 -21 201q14 77 62 141t102 107q137 111 137 214t-110 166q-111 62 -299 71
l28 198q295 -8 459 -124t164 -281z" />
    <glyph glyph-name="at" unicode="@" horiz-adv-x="1996" 
d="M1026 948q-116 0 -180 -117t-64 -253t76 -138q76 0 148 102t108 294l19 98q-41 14 -107 14zM1073 1505q353 0 543 -190q190 -189 190 -469t-133 -431t-344 -151q-115 0 -169 62t-46 151h-6q-33 -77 -118 -145t-181 -68q-203 0 -203 285q0 241 121 395t348 154
q131 0 252 -35l-76 -422q-37 -201 107 -201q112 0 182 100t70 298q0 200 -135 346t-421 145q-286 0 -485 -205t-198 -524q-1 -280 155 -436t455 -156q168 0 350 55l33 -172q-190 -63 -410 -63q-372 0 -578 201t-206 546q0 265 122 479t328 332t453 119z" />
    <glyph glyph-name="A" unicode="A" horiz-adv-x="1269" 
d="M846 483l-164 457q-43 129 -57 188h-4q-20 -86 -56 -186l-164 -459h445zM1257 0h-247l-107 305h-559l-106 -305h-226l496 1382h248z" />
    <glyph glyph-name="B" unicode="B" horiz-adv-x="1175" 
d="M844 414q0 215 -336 215q-94 0 -125 -2v-441q57 -10 184 -10t202 64t75 174zM805 1018q0 193 -254 192q-61 0 -168 -4v-409q37 -2 119 -2q303 0 303 223zM1081 418q0 -155 -111 -279q-58 -65 -169 -105t-262 -40l-379 6v1382q326 6 430 7q219 0 335 -87t115 -249
q0 -105 -59 -191t-166 -125v-4q129 -25 198 -112q68 -88 68 -203z" />
    <glyph glyph-name="C" unicode="C" horiz-adv-x="1177" 
d="M88 670q0 318 173 522q173 203 509 203q166 0 307 -43l-33 -205q-143 51 -292 51q-208 0 -314 -140t-106 -368q0 -506 438 -506q154 0 285 66l37 -197q-170 -70 -371 -69q-329 0 -481 184t-152 502z" />
    <glyph glyph-name="D" unicode="D" horiz-adv-x="1378" 
d="M1055 694q0 510 -484 510q-115 0 -188 -6v-1005q76 -10 166 -11q233 0 370 128q136 128 136 384zM160 1380l428 9q704 0 704 -678q0 -347 -209 -533t-557 -186l-366 8v1380z" />
    <glyph glyph-name="E" unicode="E" horiz-adv-x="1019" 
d="M889 0h-729v1382h729v-186h-506v-393h481v-182h-481v-431h506v-190z" />
    <glyph glyph-name="F" unicode="F" horiz-adv-x="956" 
d="M881 1194h-498v-406h471v-182h-471v-606h-223v1382h721v-188z" />
    <glyph glyph-name="G" unicode="G" horiz-adv-x="1390" 
d="M82 665q0 323 205 529t549 207q199 0 387 -58l-47 -204q-170 67 -372 67t-342 -137t-140 -380t128 -377t351 -134q111 0 213 33v502h223v-650q-217 -84 -463 -83q-322 0 -507 181t-185 504z" />
    <glyph glyph-name="H" unicode="H" horiz-adv-x="1419" 
d="M1257 0h-221v621h-653v-621h-223v1382h223v-571h653v571h221v-1382z" />
    <glyph glyph-name="I" unicode="I" horiz-adv-x="544" 
d="M383 0h-223v1382h223v-1382z" />
    <glyph glyph-name="J" unicode="J" horiz-adv-x="679" 
d="M520 373q0 -389 -358 -389q-74 0 -160 16v195q63 -23 140 -23t116 45t39 166v999h223v-1009z" />
    <glyph glyph-name="K" unicode="K" horiz-adv-x="1208" 
d="M383 0h-223v1382h223v-641l504 641h274l-549 -667l570 -715h-297l-502 676v-676z" />
    <glyph glyph-name="L" unicode="L" horiz-adv-x="874" 
d="M858 0h-698v1382h223v-1187h475v-195z" />
    <glyph glyph-name="M" unicode="M" horiz-adv-x="1814" 
d="M1731 0h-236l-109 735q-20 137 -43 338h-4q-31 -150 -71 -270l-260 -803h-232l-248 748q-57 170 -88 325h-4q-4 -57 -37 -358l-88 -715h-227l207 1382h266l266 -798q45 -141 78 -283h2q39 164 78 274l270 807h269z" />
    <glyph glyph-name="N" unicode="N" horiz-adv-x="1441" 
d="M1280 0h-289l-473 786q-76 123 -153 291q12 -203 12 -612v-465h-217v1382h293l456 -753q53 -90 168 -314q-14 276 -14 658v409h217v-1382z" />
    <glyph glyph-name="O" unicode="O" horiz-adv-x="1441" 
d="M1126 689q0 247 -105 382t-287 135t-301 -133q-118 -133 -118 -374q-1 -241 101 -381t286 -140t304 132t120 379zM1364 711q0 -336 -189 -534q-189 -197 -485 -197t-454 185t-158 515t190 526t475 197q285 0 453 -178t168 -514z" />
    <glyph glyph-name="P" unicode="P" horiz-adv-x="1079" 
d="M791 956q0 252 -293 252q-78 0 -115 -4v-506q61 -8 98 -8q141 2 225 74t85 192zM1022 971q0 -199 -148 -332t-389 -133q-68 0 -102 4v-510h-223v1382q213 8 354 9q244 -1 376 -111t132 -309z" />
    <glyph glyph-name="Q" unicode="Q" horiz-adv-x="1439" 
d="M1126 689q0 247 -105 382t-287 135t-301 -133q-118 -133 -118 -374q-1 -241 101 -381t286 -140t304 132t120 379zM1438 -395q-123 -18 -237 -8q-113 11 -187 33q-187 57 -375 34v199q172 20 402 -32t397 -30v-196zM1364 711q0 -336 -189 -534q-189 -197 -485 -197
t-454 185t-158 515t190 526t475 197q285 0 453 -178t168 -514z" />
    <glyph glyph-name="R" unicode="R" horiz-adv-x="1144" 
d="M780 991q0 217 -280 217q-51 0 -117 -4v-438q41 -4 109 -4q132 0 210 62t78 167zM383 598v-598h-223v1382q133 8 370 9q483 0 484 -375q0 -160 -108 -264t-269 -123q100 -127 115 -148l352 -481h-281l-415 598h-25z" />
    <glyph glyph-name="S" unicode="S" horiz-adv-x="1030" 
d="M942 414q0 -190 -143 -312t-377 -122q-172 0 -311 38l24 213q147 -57 281 -57t209 52t75 146t-62 144q-62 51 -152 84t-178 73q-89 40 -151 122t-63 204q0 182 132 293t368 111q127 0 250 -27l-23 -196q-117 39 -241 39q-124 1 -186 -51q-64 -52 -64 -135t63 -134
t153 -85t179 -75t153 -123t64 -202z" />
    <glyph glyph-name="T" unicode="T" horiz-adv-x="1052" 
d="M1018 1194h-381v-1194h-223v1194h-379v188h983v-188z" />
    <glyph glyph-name="U" unicode="U" horiz-adv-x="1406" 
d="M1247 532q0 -274 -143 -413t-438 -139t-407 152q-101 136 -99 339v911h223v-895q0 -155 70 -239q71 -84 245 -84t252 81t78 271v866h219v-850z" />
    <glyph glyph-name="V" unicode="V" horiz-adv-x="1273" 
d="M1257 1382l-497 -1382h-254l-492 1382h246l291 -852q45 -123 86 -276h2q37 137 92 291l297 837h229z" />
    <glyph glyph-name="W" unicode="W" horiz-adv-x="1949" 
d="M1888 1382l-358 -1382h-275l-235 854q-25 84 -53 260h-2q-14 -125 -50 -256l-233 -858h-262l-359 1382h238l213 -839q35 -127 53 -273h2q25 160 56 262l235 850h244l241 -852q33 -121 56 -254h2q27 156 49 242l215 864h223z" />
    <glyph glyph-name="X" unicode="X" horiz-adv-x="1253" 
d="M1225 0h-281l-328 543l-325 -543h-262l448 711l-422 671h258l308 -505l303 505h252l-414 -667z" />
    <glyph glyph-name="Y" unicode="Y" horiz-adv-x="1122" 
d="M668 0h-224v494l-432 888h244l205 -436q55 -123 98 -233h4q37 100 115 258l194 411h236l-440 -888v-494z" />
    <glyph glyph-name="Z" unicode="Z" horiz-adv-x="1101" 
d="M1012 0h-920v170l545 866q45 72 102 150q-59 -2 -280 -2h-346v198h891v-176l-574 -895q-23 -37 -72 -110q37 4 324 4h330v-205z" />
    <glyph glyph-name="bracketleft" unicode="[" horiz-adv-x="663" 
d="M588 -412h-426v1997h426v-172h-221v-1651h221v-174z" />
    <glyph glyph-name="backslash" unicode="\" horiz-adv-x="940" 
d="M950 -330h-215l-717 1880h213z" />
    <glyph glyph-name="bracketright" unicode="]" horiz-adv-x="663" 
d="M502 -412h-426v174h221v1651h-221v172h426v-1997z" />
    <glyph glyph-name="asciicircum" unicode="^" 
d="M985 778l-160 -82l-284 527l-271 -527l-147 78l338 608h172z" />
    <glyph glyph-name="underscore" unicode="_" 
d="M1126 -508h-1126v176h1126v-176z" />
    <glyph glyph-name="grave" unicode="`" horiz-adv-x="759" 
d="M606 1276l-88 -117l-336 227l111 146z" />
    <glyph glyph-name="a" unicode="a" horiz-adv-x="1071" 
d="M688 440v29q-389 0 -389 -180q0 -59 38 -99t101 -38q110 0 180 86t70 202zM702 0q0 119 11 188l-2 2q-39 -94 -129 -152t-214 -58t-202 78t-78 204q0 170 159 262t441 92v60q0 98 -48 145t-182 47t-274 -73l-43 176q178 67 384 67t294 -87t88 -251v-421q0 -150 6 -279
h-211z" />
    <glyph glyph-name="b" unicode="b" horiz-adv-x="1142" 
d="M831 539q0 317 -200 317q-115 0 -184 -111t-68 -251v-316q63 -20 160 -20q292 0 292 381zM688 1038q180 0 278 -124t97 -372q0 -248 -144 -404q-144 -155 -397 -154q-197 0 -362 43v1468h219v-469q0 -115 -19 -195h5q41 95 127 151t196 56z" />
    <glyph glyph-name="c" unicode="c" horiz-adv-x="882" 
d="M530 -16q-453 0 -452 491q0 252 130 406t376 153q139 0 237 -39l-37 -186q-106 43 -223 43t-185 -96t-69 -256q0 -328 266 -328q127 0 220 45l32 -182q-123 -51 -295 -51z" />
    <glyph glyph-name="d" unicode="d" horiz-adv-x="1140" 
d="M764 526v316q-82 18 -162 18q-293 0 -293 -381q0 -319 203 -319q116 0 184 112t68 254zM981 0h-207q0 111 14 190h-4q-43 -96 -130 -153t-201 -57q-184 0 -280 126q-95 127 -95 372t143 401t389 155q43 0 154 -8v469h217v-1495z" />
    <glyph glyph-name="e" unicode="e" horiz-adv-x="1046" 
d="M739 643q2 109 -53 171t-149 62q-95 0 -155 -62t-75 -171h432zM958 598q0 -41 -6 -106h-649q-8 -336 301 -336q154 0 293 61l29 -172q-162 -66 -361 -65q-487 0 -487 522q0 238 124 388t336 148q212 0 316 -122t104 -318z" />
    <glyph glyph-name="f" unicode="f" horiz-adv-x="720" 
d="M608 1331q-180 0 -180 -231v-82h264v-170h-264v-848h-217v848h-195v170h195v78q0 414 397 413q86 0 166 -18l-16 -180q-62 20 -150 20z" />
    <glyph glyph-name="g" unicode="g" horiz-adv-x="1112" 
d="M838 -154q0 143 -189 152l-186 6h-55q-115 -82 -115 -171q1 -89 69 -136t194 -47t204 55t78 141zM748 672q0 94 -56 149t-155 55q-101 0 -159 -56q-58 -58 -58 -151t54 -147q56 -54 157 -53t159 55t58 148zM1055 -123q0 -168 -153 -283q-153 -114 -375 -114t-337 79
t-114 226q0 80 48 152t118 110q-100 43 -101 154q0 55 32 103t85 73q-152 86 -152 278q0 162 117 273t324 110q66 0 153 -20h347v-172h-156q68 -57 67 -162q0 -166 -112 -267t-320 -102q-47 0 -96 13q-59 -29 -59 -72t37 -58t131 -20l172 -6q344 -12 344 -295z" />
    <glyph glyph-name="h" unicode="h" horiz-adv-x="1173" 
d="M1014 0h-217v653q0 99 -34 151t-118 52q-115 0 -191 -105t-75 -262v-489h-219v1495h219v-463q0 -131 -19 -205l5 -2q45 97 135 155t211 58q303 0 303 -325v-713z" />
    <glyph glyph-name="i" unicode="i" horiz-adv-x="538" 
d="M379 0h-219v1018h219v-1018zM410 1335q0 -57 -41 -97t-99 -40t-100 40q-41 40 -41 97t41 97t99 41q58 0 100 -40q41 -41 41 -98z" />
    <glyph glyph-name="j" unicode="j" horiz-adv-x="548" 
d="M389 -96q0 -214 -84 -316t-287 -102q-80 0 -141 18l14 189q61 -23 138 -23t110 45t33 168v1135h217v-1114zM420 1335q0 -57 -41 -97t-99 -40t-100 40q-41 40 -41 97t41 97q42 40 100 41q58 -1 99 -41t41 -97z" />
    <glyph glyph-name="k" unicode="k" horiz-adv-x="1038" 
d="M379 0h-219v1495h219v-913l330 436h268l-377 -465l406 -553h-279l-348 516v-516z" />
    <glyph glyph-name="l" unicode="l" horiz-adv-x="538" 
d="M379 0h-219v1495h219v-1495z" />
    <glyph glyph-name="m" unicode="m" horiz-adv-x="1787" 
d="M1628 0h-217v649q0 103 -33 155q-32 52 -124 52t-172 -104t-81 -267v-485h-215v649q0 100 -30 154q-31 53 -127 53t-173 -106t-77 -265v-485h-219v1018h209q0 -115 -15 -201l4 -2q44 103 136 163t218 60t191 -66q66 -66 82 -153q39 86 127 153t213 66q303 0 303 -336
v-702z" />
    <glyph glyph-name="n" unicode="n" horiz-adv-x="1173" 
d="M1014 0h-217v653q0 99 -34 151t-118 52q-115 0 -191 -105t-75 -262v-489h-219v1018h209q0 -121 -15 -201h2q46 101 138 161t217 60q303 0 303 -325v-713z" />
    <glyph glyph-name="o" unicode="o" horiz-adv-x="1124" 
d="M821 514q0 340 -258 340q-109 0 -185 -86t-77 -250q0 -350 260 -350q113 0 187 89q73 89 73 257zM1047 538q1 -248 -141 -404t-363 -154q-221 0 -345 128t-124 376t140 402t362 152q222 0 346 -126q125 -126 125 -374z" />
    <glyph glyph-name="p" unicode="p" horiz-adv-x="1142" 
d="M831 539q0 319 -200 319q-115 0 -184 -112t-68 -254v-314q68 -20 160 -20q292 0 292 381zM688 1038q180 0 278 -124t97 -374q0 -250 -138 -403q-138 -152 -393 -151q-90 0 -153 12v-498h-219v1518h207q0 -125 -13 -191h4q43 99 129 155t201 56z" />
    <glyph glyph-name="q" unicode="q" horiz-adv-x="1142" 
d="M766 530v314q-80 18 -162 18q-293 0 -293 -383q0 -319 201 -319q118 0 186 112t68 258zM983 -500h-217v498q0 115 14 188l-4 2q-41 -96 -126 -152t-191 -56q-182 0 -280 120q-97 121 -97 372t143 407t402 155q190 0 356 -28v-1506z" />
    <glyph glyph-name="r" unicode="r" horiz-adv-x="727" 
d="M379 414v-414h-219v1018h209q0 -115 -21 -225h4q39 117 122 187t216 56l-10 -215q-152 29 -226 -73t-75 -334z" />
    <glyph glyph-name="s" unicode="s" horiz-adv-x="862" 
d="M770 311q0 -147 -119 -239t-319 -92q-127 0 -226 28l17 187q101 -39 205 -39t158 36t54 94q0 60 -45 93q-46 33 -112 52q-65 19 -131 45t-112 87t-46 160q0 139 106 227t310 88q94 0 192 -20l-12 -176q-92 29 -192 28q-178 0 -179 -127q1 -55 47 -88t112 -53t134 -47
q66 -27 112 -89t46 -155z" />
    <glyph glyph-name="t" unicode="t" horiz-adv-x="763" 
d="M203 293v555h-195v170h195v323l219 60v-383h266v-170h-266v-488q0 -112 28 -152t96 -40t134 14l18 -176q-104 -25 -213 -24q-160 0 -221 70t-61 241z" />
    <glyph glyph-name="u" unicode="u" horiz-adv-x="1173" 
d="M1014 0h-209q0 121 14 201h-2q-47 -101 -138 -161t-216 -60q-303 0 -303 325v713h217v-653q0 -99 34 -151t117 -52q115 0 191 105t76 261v490h219v-1018z" />
    <glyph glyph-name="v" unicode="v" horiz-adv-x="1013" 
d="M1001 1018l-385 -1018h-223l-381 1018h242l190 -539q37 -106 66 -209h2q29 113 59 201l195 547h235z" />
    <glyph glyph-name="w" unicode="w" horiz-adv-x="1626" 
d="M1599 1018l-325 -1018h-242l-176 532q-29 88 -59 216h-2q-27 -117 -70 -256l-154 -492h-231l-313 1018h239l135 -473q63 -229 76 -285h2q27 127 72 279l151 479h222l153 -471q49 -158 80 -287h2q33 145 72 277l141 481h227z" />
    <glyph glyph-name="x" unicode="x" horiz-adv-x="1071" 
d="M1036 0h-278l-230 369l-231 -369h-264l364 512l-344 506h264l228 -363l231 363h244l-336 -502z" />
    <glyph glyph-name="y" unicode="y" horiz-adv-x="1003" 
d="M86 -516q-59 0 -129 12l25 191q55 -16 124 -17q168 0 254 230l37 100l-381 1018h246l166 -465q37 -100 80 -266h2q31 127 100 317l146 414h235l-411 -1090q-94 -250 -205 -347t-289 -97z" />
    <glyph glyph-name="z" unicode="z" horiz-adv-x="919" 
d="M817 0h-721v156l453 669q-102 -4 -246 -4h-197v197h703v-154l-447 -667q102 4 256 4h199v-201z" />
    <glyph glyph-name="braceleft" unicode="{" horiz-adv-x="716" 
d="M651 -412h-39q-184 0 -264 102t-80 322v322q0 123 -48 172t-163 55v168q117 6 164 52t47 169v213q0 207 80 315t264 107h39v-172q-104 0 -142 -50t-38 -196v-211q0 -274 -188 -309v-2q188 -29 188 -317v-320q0 -145 38 -195t142 -51v-174z" />
    <glyph glyph-name="bar" unicode="|" horiz-adv-x="585" 
d="M377 -500h-174v2048h174v-2048z" />
    <glyph glyph-name="braceright" unicode="}" horiz-adv-x="712" 
d="M459 334v-322q0 -219 -80 -321t-264 -103h-39v174q104 0 142 50t38 196v320q0 289 188 317v2q-188 25 -188 303v217q0 145 -38 195t-142 51v172h39q184 1 264 -107t80 -315v-207q0 -129 46 -175t165 -52v-168q-113 -6 -162 -56t-49 -171z" />
    <glyph glyph-name="asciitilde" unicode="~" 
d="M1028 1157q0 -141 -78 -227t-211 -86q-78 0 -135 35t-84 75q-74 110 -145 111q-109 0 -113 -174h-162v27q0 141 78 227t211 86q78 0 135 -35t84 -76q74 -112 146 -110q109 0 112 176h162v-29z" />
    <glyph glyph-name="nbspace" unicode="&#xa0;" horiz-adv-x="446" 
 />
    <glyph glyph-name="exclamdown" unicode="&#xa1;" horiz-adv-x="655" 
d="M438 -426h-258l35 1081h186zM451 901q0 -57 -40 -96q-39 -39 -99 -39t-100 39t-40 97t40 97t99 39t99 -40t41 -97z" />
    <glyph glyph-name="cent" unicode="&#xa2;" 
d="M727 0h-168v207q-195 14 -298 136t-103 322q0 201 105 325t296 161v180h168v-174q115 -6 223 -45l-43 -180q-109 49 -235 49t-207 -78q-80 -78 -80 -218t75 -218t213 -78t240 57l54 -176q-119 -55 -240 -63v-207z" />
    <glyph glyph-name="sterling" unicode="&#xa3;" 
d="M993 0h-848v150q178 150 179 299q0 61 -13 126h-207v170h185q-20 139 -21 203q0 403 426 404q123 0 248 -33l-47 -184q-117 39 -215 39q-190 0 -191 -205q0 -61 23 -224h317v-170h-297q33 -160 -22 -265q-33 -62 -104 -126q90 4 157 4h430v-188z" />
    <glyph glyph-name="currency" unicode="&#xa4;" 
d="M756 684q0 219 -197 219q-80 0 -134 -60q-54 -61 -54 -165t47 -168t136 -64q90 0 146 64t56 174zM556 287q-81 0 -138 22l-144 -196l-168 118l146 181q-76 96 -76 254t86 260l-153 192l163 119l150 -205q68 33 158 33t147 -29l150 201l161 -121l-151 -190q63 -90 63 -239
t-80 -247l168 -209l-164 -120l-161 217q-76 -41 -157 -41z" />
    <glyph glyph-name="yen" unicode="&#xa5;" 
d="M999 629v-144h-327v-135h327v-143h-327v-207h-221v207h-328v143h328v135h-328v144h274l-342 702h244l174 -381q39 -80 88 -221h4q41 109 99 232l172 370h235l-346 -702h274z" />
    <glyph glyph-name="brokenbar" unicode="&#xa6;" horiz-adv-x="585" 
d="M377 -500h-174v774h174v-774zM377 795h-174v753h174v-753z" />
    <glyph glyph-name="section" unicode="&#xa7;" horiz-adv-x="1073" 
d="M709 463q0 51 -30 107t-57 87q-28 31 -103 104t-101 99q-78 -57 -78 -149q0 -51 15 -81t23 -47t30 -43t32 -39t44 -47t84 -80q51 -46 63 -59q78 56 78 148zM909 492q0 -174 -157 -293q78 -102 78 -225q0 -122 -107 -218q-106 -96 -315 -96q-76 0 -164 21l14 184
q86 -25 165 -25t126 40t47 100t-47 118q-47 60 -115 118t-136 124t-114 155q-47 89 -47 187q0 174 158 293q-78 100 -78 227t99 217t298 90q82 0 160 -16l-14 -184q-70 23 -144 22q-166 0 -165 -133q0 -93 161 -235q68 -59 136 -126t114 -158t47 -187z" />
    <glyph glyph-name="dieresis" unicode="&#xa8;" horiz-adv-x="1118" 
d="M465 1334q0 -52 -36 -88t-88 -36t-88 36t-36 88t36 88t87 36t88 -36t37 -88zM866 1335q0 -51 -36 -88t-87 -37t-88 36t-37 88t37 88t88 36t87 -36t36 -87z" />
    <glyph glyph-name="copyright" unicode="&#xa9;" horiz-adv-x="1552" 
d="M446 676q0 162 90 268t267 107q86 0 166 -29l-23 -152q-63 35 -139 35q-176 0 -176 -215t168 -215q82 0 151 31l27 -146q-96 -39 -205 -38q-160 0 -243 96t-83 258zM1298 683q0 218 -153 374q-154 155 -371 155t-371 -154q-153 -154 -153 -372q0 -219 154 -374
q154 -154 370 -154q217 0 371 153q153 154 153 372zM1466 686q0 -288 -202 -490t-493 -202t-491 201t-200 489t203 490t491 202t491 -201q201 -202 201 -489z" />
    <glyph glyph-name="ordfeminine" unicode="&#xaa;" horiz-adv-x="808" 
d="M496 975v20q-233 0 -234 -112q0 -33 22 -53t60 -19q72 -1 112 55t40 109zM721 399h-610v172h610v-172zM502 686q0 63 10 105l-4 2q-20 -51 -80 -87t-145 -36q-86 0 -139 50q-52 50 -52 136q0 123 110 191t294 65v35q0 111 -120 111t-226 -56l-17 154q113 45 264 45
q274 0 275 -234v-305q0 -135 2 -176h-172z" />
    <glyph glyph-name="guillemotleft" unicode="&#xab;" horiz-adv-x="1064" 
d="M500 301l-174 -82l-226 381l230 385l166 -80l-183 -305zM932 309l-170 -84l-246 375l250 379l164 -82l-199 -297z" />
    <glyph glyph-name="logicalnot" unicode="&#xac;" 
d="M993 205h-192v313h-717v182h909v-495z" />
    <glyph glyph-name="registered" unicode="&#xae;" horiz-adv-x="1153" 
d="M633 1180q0 53 -66 53h-39v-119h25q41 0 61 20t19 46zM528 1040v-184h-110v461h174q162 0 162 -125q0 -106 -103 -131q16 -16 37 -57l80 -148h-133l-96 184h-11zM901 1082q0 134 -95 232q-96 98 -230 99q-134 0 -229 -96q-95 -97 -95 -231t95 -232t229 -98t230 96
q95 96 95 230zM1040 1086q0 -192 -137 -326q-137 -135 -330 -135t-327 133q-134 134 -133 326q0 192 135 326q134 134 328 134t329 -133t135 -325z" />
    <glyph glyph-name="macron" unicode="&#xaf;" horiz-adv-x="808" 
d="M670 1247h-531v160h531v-160z" />
    <glyph glyph-name="degree" unicode="&#xb0;" horiz-adv-x="780" 
d="M506 1235q0 55 -29 94t-86 39t-91 -37t-34 -96t32 -95t86 -36t88 38t34 93zM672 1235q0 -121 -88 -196t-212 -75t-199 72t-75 197t88 200t216 75t199 -76t71 -197z" />
    <glyph glyph-name="plusminus" unicode="&#xb1;" 
d="M1038 0h-950v182h950v-182zM1042 696h-374v-389h-209v389h-375v183h375v387h209v-387h374v-183z" />
    <glyph glyph-name="twosuperior" unicode="&#xb2;" horiz-adv-x="653" 
d="M340 1128q0 80 -100 80q-52 0 -105 -37l-39 134q104 45 213 45t168 -54t59 -145q0 -92 -133 -209l-84 -72h236v-143h-465v123l137 119q113 98 113 159z" />
    <glyph glyph-name="threesuperior" unicode="&#xb3;" horiz-adv-x="630" 
d="M530 907q0 -96 -78 -147t-221 -51q-80 0 -141 16l21 121q57 -16 106 -17q119 0 119 76q0 49 -45 67t-156 5v106h37q152 0 152 82q0 66 -91 66q-59 0 -108 -25l-29 111q80 33 191 33t166 -46t55 -116q0 -100 -94 -146q56 -6 86 -45t30 -90z" />
    <glyph glyph-name="acute" unicode="&#xb4;" horiz-adv-x="800" 
d="M614 1386l-335 -227l-89 117l314 256z" />
    <glyph glyph-name="paragraph" unicode="&#xb6;" horiz-adv-x="1198" 
d="M125 940q0 197 130 320t339 122v-890q-231 -2 -350 124t-119 324zM1081 1210h-139v-1407h-338v172h148v1407h329v-172z" />
    <glyph glyph-name="periodcentered" unicode="&#xb7;" horiz-adv-x="512" 
d="M256 758q62 0 106 -44t44 -105q0 -62 -44 -105t-106 -43q-61 0 -105 43q-45 43 -45 105q0 61 44 105t106 44z" />
    <glyph glyph-name="cedilla" unicode="&#xb8;" horiz-adv-x="819" 
d="M526 -82q145 -195 -43 -399h-170q82 100 90 171t-61 165z" />
    <glyph glyph-name="onesuperior" unicode="&#xb9;" horiz-adv-x="638" 
d="M442 727h-180v459l-139 -64l-37 131l190 78h166v-604z" />
    <glyph glyph-name="ordmasculine" unicode="&#xba;" horiz-adv-x="864" 
d="M584 1044q0 201 -154 201q-66 0 -111 -51t-45 -156q0 -209 150 -209q72 0 116 52t44 163zM741 399h-622v172h622v-172zM88 1023q0 177 99 279t249 101q150 0 242 -84t92 -262q0 -177 -100 -281t-254 -104t-241 87t-87 264z" />
    <glyph glyph-name="guillemotright" unicode="&#xbb;" horiz-adv-x="1064" 
d="M549 604l-252 -379l-162 82l199 297l-199 291l168 84zM967 604l-232 -385l-168 80l185 305l-185 299l174 82z" />
    <glyph glyph-name="onequarter" unicode="&#xbc;" horiz-adv-x="1464" 
d="M442 727h-180v459l-139 -64l-37 131l190 78h166v-604zM1274 1272l-1022 -1315l-139 98l1022 1315zM1356 106h-101v-106h-161v106h-293l-10 117l223 381h241v-368h101v-130zM1094 233v261l-154 -261h154z" />
    <glyph glyph-name="onehalf" unicode="&#xbd;" horiz-adv-x="1470" 
d="M442 727h-180v459l-139 -64l-37 131l190 78h166v-604zM1272 1272l-1022 -1315l-139 98l1022 1315zM1348 0h-465v123l137 119q66 55 89 90q24 36 24 70t-24 57t-76 23t-103 -38l-39 134q100 45 210 45q110 -1 169 -55t59 -134q0 -109 -133 -219l-84 -74h236v-141z" />
    <glyph glyph-name="threequarters" unicode="&#xbe;" horiz-adv-x="1470" 
d="M537 907q0 -96 -78 -147t-219 -51q-72 0 -144 14l21 121q57 -16 108 -17q117 0 117 78q0 49 -45 67t-156 5v106h37q152 0 152 82q0 66 -90 66q-55 0 -109 -25l-29 111q80 33 191 33t166 -46t55 -116q0 -100 -94 -146q55 -6 86 -45t31 -90zM1280 1272l-1022 -1315l-139 98
l1022 1315zM1362 106h-100v-106h-162v106h-293l-10 117l223 381h242v-368h100v-130zM1100 233v261l-154 -261h154z" />
    <glyph glyph-name="questiondown" unicode="&#xbf;" horiz-adv-x="917" 
d="M350 -12q0 -98 112 -161t300 -71l-29 -198q-295 8 -459 125t-163 280q0 134 81 226q81 91 134 139q99 88 109 195q5 52 -15 132h213q35 -125 21 -201t-64 -140q-48 -66 -102 -108t-96 -100t-42 -118zM664 901q0 -57 -40 -96t-100 -39t-100 39q-41 39 -41 96t41 97t100 40
q60 0 100 -40t40 -97z" />
    <glyph glyph-name="Agrave" unicode="&#xc0;" horiz-adv-x="1269" 
d="M846 483l-164 457q-43 129 -57 188h-4q-20 -86 -56 -186l-164 -459h445zM1257 0h-247l-107 305h-559l-106 -305h-226l496 1382h248zM750 1599l-39 -122l-414 112l57 162z" />
    <glyph glyph-name="Aacute" unicode="&#xc1;" horiz-adv-x="1269" 
d="M846 483l-164 457q-43 129 -57 188h-4q-20 -86 -56 -186l-164 -459h445zM1257 0h-247l-107 305h-559l-106 -305h-226l496 1382h248zM928 1589l-412 -112l-39 122l395 152z" />
    <glyph glyph-name="Acircumflex" unicode="&#xc2;" horiz-adv-x="1269" 
d="M846 483l-164 457q-43 129 -57 188h-4q-20 -86 -56 -186l-164 -459h445zM1257 0h-247l-107 305h-559l-106 -305h-226l496 1382h248zM958 1589l-57 -114l-278 124l-273 -124l-53 110l330 176z" />
    <glyph glyph-name="Atilde" unicode="&#xc3;" horiz-adv-x="1269" 
d="M846 483l-164 457q-43 129 -57 188h-4q-20 -86 -56 -186l-164 -459h445zM1257 0h-247l-107 305h-559l-106 -305h-226l496 1382h248zM754 1499q-78 0 -155 51t-114 52q-70 0 -123 -91l-110 76q90 160 242 160q76 0 154 -51t112 -51q70 0 125 90l110 -78
q-92 -158 -241 -158z" />
    <glyph glyph-name="Adieresis" unicode="&#xc4;" horiz-adv-x="1269" 
d="M846 483l-164 457q-43 129 -57 188h-4q-20 -86 -56 -186l-164 -459h445zM1257 0h-247l-107 305h-559l-106 -305h-226l496 1382h248zM518 1604q0 -47 -33 -80t-79 -33t-80 33q-33 33 -33 80q0 46 33 80t80 34q48 0 80 -34t32 -80zM958 1604q0 -47 -32 -80t-80 -33
q-47 0 -81 33t-34 80q0 46 34 80t81 34q48 0 80 -34t32 -80z" />
    <glyph glyph-name="Aring" unicode="&#xc5;" horiz-adv-x="1269" 
d="M844 483l-156 437q-29 68 -63 206h-4q-20 -94 -64 -213l-156 -430h443zM743 1489q0 47 -31 80q-32 33 -78 33t-78 -33t-32 -80t32 -80t78 -33t78 33q31 33 31 80zM389 1480q0 108 72 177q72 67 174 67t173 -68t71 -176q0 -110 -99 -167l477 -1313h-247l-107 305h-559
l-106 -305h-226l471 1315q-94 57 -94 165z" />
    <glyph glyph-name="AE" unicode="&#xc6;" horiz-adv-x="1603" 
d="M743 498v696h-4q-82 -188 -133 -283l-219 -413h356zM1473 0h-730v322h-434l-162 -322h-231l713 1382h827v-186h-495v-393h477v-182h-477v-431h512v-190z" />
    <glyph glyph-name="Ccedilla" unicode="&#xc7;" horiz-adv-x="1177" 
d="M737 -82q145 -195 -43 -399h-170q82 100 90 171t-61 165zM88 670q0 318 173 522q173 203 509 203q166 0 307 -43l-33 -205q-143 51 -292 51q-208 0 -314 -140t-106 -368q0 -506 438 -506q154 0 285 66l37 -197q-170 -70 -371 -69q-329 0 -481 184t-152 502z" />
    <glyph glyph-name="Egrave" unicode="&#xc8;" horiz-adv-x="1019" 
d="M889 0h-729v1382h729v-186h-506v-393h481v-182h-481v-431h506v-190zM666 1599l-39 -122l-412 112l55 162z" />
    <glyph glyph-name="Eacute" unicode="&#xc9;" horiz-adv-x="1019" 
d="M889 0h-729v1382h729v-186h-506v-393h481v-182h-481v-431h506v-190zM840 1589l-412 -112l-39 122l395 152z" />
    <glyph glyph-name="Ecircumflex" unicode="&#xca;" horiz-adv-x="1019" 
d="M889 0h-729v1382h729v-186h-506v-393h481v-182h-481v-431h506v-190zM850 1589l-57 -114l-279 124l-272 -124l-54 110l328 176z" />
    <glyph glyph-name="Edieresis" unicode="&#xcb;" horiz-adv-x="1019" 
d="M889 0h-729v1382h729v-186h-506v-393h481v-182h-481v-431h506v-190zM408 1604q0 -47 -33 -80t-80 -33t-80 33t-33 80q0 46 33 80t80 34t80 -34t33 -80zM848 1604q0 -47 -34 -80t-80 -33t-80 33t-33 80q1 46 33 80t79 34t81 -34t34 -80z" />
    <glyph glyph-name="Igrave" unicode="&#xcc;" horiz-adv-x="544" 
d="M383 0h-223v1382h223v-1382zM426 1599l-39 -122l-412 112l56 162z" />
    <glyph glyph-name="Iacute" unicode="&#xcd;" horiz-adv-x="544" 
d="M383 0h-223v1382h223v-1382zM559 1589l-412 -112l-38 122l395 152z" />
    <glyph glyph-name="Icircumflex" unicode="&#xce;" horiz-adv-x="544" 
d="M383 0h-223v1382h223v-1382zM604 1589l-57 -114l-279 124l-272 -124l-53 110l329 176z" />
    <glyph glyph-name="Idieresis" unicode="&#xcf;" horiz-adv-x="544" 
d="M383 0h-223v1382h223v-1382zM164 1604q0 -47 -34 -80t-80 -33t-80 33t-33 80q1 46 33 80t79 34t81 -34t34 -80zM602 1604q0 -47 -33 -80t-80 -33t-79 33t-33 80q0 46 33 80q34 34 80 34t79 -34t33 -80z" />
    <glyph glyph-name="Eth" unicode="&#xd0;" horiz-adv-x="1396" 
d="M1073 692q0 512 -483 512q-115 0 -189 -6v-407h269v-168h-269v-433q66 -8 166 -8q233 0 370 128q136 128 136 382zM180 1380l426 9q703 0 703 -680q0 -345 -208 -531t-558 -186l-363 8v623h-176v168h176v589z" />
    <glyph glyph-name="Ntilde" unicode="&#xd1;" horiz-adv-x="1441" 
d="M1280 0h-289l-473 786q-76 123 -153 291q12 -203 12 -612v-465h-217v1382h293l456 -753q53 -90 168 -314q-14 276 -14 658v409h217v-1382zM831 1499q-77 0 -153 51t-113 52q-70 0 -123 -91l-110 76q90 160 241 160q76 0 153 -51t114 -51q70 0 123 90l110 -78
q-88 -158 -242 -158z" />
    <glyph glyph-name="Ograve" unicode="&#xd2;" horiz-adv-x="1441" 
d="M1126 689q0 247 -105 382t-287 135t-301 -133q-118 -133 -118 -374q-1 -241 101 -381t286 -140t304 132t120 379zM1364 711q0 -336 -189 -534q-189 -197 -485 -197t-454 185t-158 515t190 526t475 197q285 0 453 -178t168 -514zM874 1599l-38 -122l-412 112l55 162z" />
    <glyph glyph-name="Oacute" unicode="&#xd3;" horiz-adv-x="1441" 
d="M1126 689q0 247 -105 382t-287 135t-301 -133q-118 -133 -118 -374q-1 -241 101 -381t286 -140t304 132t120 379zM1364 711q0 -336 -189 -534q-189 -197 -485 -197t-454 185t-158 515t190 526t475 197q285 0 453 -178t168 -514zM1038 1589l-413 -112l-39 122l395 152z
" />
    <glyph glyph-name="Ocircumflex" unicode="&#xd4;" horiz-adv-x="1441" 
d="M1126 689q0 247 -105 382t-287 135t-301 -133q-118 -133 -118 -374q-1 -241 101 -381t286 -140t304 132t120 379zM1364 711q0 -336 -189 -534q-189 -197 -485 -197t-454 185t-158 515t190 526t475 197q285 0 453 -178t168 -514zM1073 1589l-57 -114l-279 124l-272 -124
l-53 110l329 176z" />
    <glyph glyph-name="Otilde" unicode="&#xd5;" horiz-adv-x="1441" 
d="M1126 689q0 247 -105 382t-287 135t-301 -133q-118 -133 -118 -374q-1 -241 101 -381t286 -140t304 132t120 379zM1364 711q0 -336 -189 -534q-189 -197 -485 -197t-454 185t-158 515t190 526t475 197q285 0 453 -178t168 -514zM844 1499q-76 0 -154 51t-112 52
q-72 0 -125 -91l-111 76q90 160 242 160q78 0 154 -51t114 -51q70 0 123 90l110 -78q-88 -158 -241 -158z" />
    <glyph glyph-name="Odieresis" unicode="&#xd6;" horiz-adv-x="1441" 
d="M1126 689q0 247 -105 382t-287 135t-301 -133q-118 -133 -118 -374q-1 -241 101 -381t286 -140t304 132t120 379zM1364 711q0 -336 -189 -534q-189 -197 -485 -197t-454 185t-158 515t190 526t475 197q285 0 453 -178t168 -514zM616 1604q0 -47 -32 -80t-80 -33
q-47 0 -80 33t-33 80q0 46 33 80t80 34q48 0 80 -34t32 -80zM1057 1604q0 -47 -33 -80t-80 -33t-81 33t-34 80q0 46 34 80t81 34t80 -34t33 -80z" />
    <glyph glyph-name="multiply" unicode="&#xd7;" 
d="M1022 285l-135 -135l-330 331l-332 -331l-121 120l332 332l-332 330l136 135l329 -332l332 332l121 -121l-332 -332z" />
    <glyph glyph-name="Oslash" unicode="&#xd8;" horiz-adv-x="1441" 
d="M803 1198q-247 39 -391 -144q-104 -132 -105 -356q0 -315 158 -432zM1135 684q0 330 -177 446l-340 -942q47 -16 119 -12q172 8 285 139t113 369zM1364 705q0 -336 -188 -531t-482 -194q-82 0 -141 14l-74 -207l-166 53l74 203q-309 158 -309 635q0 334 189 530t474 195
q66 0 127 -12l70 196l166 -53l-70 -188q330 -154 330 -641z" />
    <glyph glyph-name="Ugrave" unicode="&#xd9;" horiz-adv-x="1406" 
d="M1247 532q0 -274 -143 -413t-438 -139t-407 152q-101 136 -99 339v911h223v-895q0 -155 70 -239q71 -84 245 -84t252 81t78 271v866h219v-850zM844 1599l-39 -122l-414 112l55 162z" />
    <glyph glyph-name="Uacute" unicode="&#xda;" horiz-adv-x="1406" 
d="M1247 532q0 -274 -143 -413t-438 -139t-407 152q-101 136 -99 339v911h223v-895q0 -155 70 -239q71 -84 245 -84t252 81t78 271v866h219v-850zM1016 1589l-412 -112l-39 122l396 152z" />
    <glyph glyph-name="Ucircumflex" unicode="&#xdb;" horiz-adv-x="1406" 
d="M1247 532q0 -274 -143 -413t-438 -139t-407 152q-101 136 -99 339v911h223v-895q0 -155 70 -239q71 -84 245 -84t252 81t78 271v866h219v-850zM1036 1589l-57 -114l-279 124l-272 -124l-53 110l327 176z" />
    <glyph glyph-name="Udieresis" unicode="&#xdc;" horiz-adv-x="1406" 
d="M1247 532q0 -274 -143 -413t-438 -139t-407 152q-101 136 -99 339v911h223v-895q0 -155 70 -239q71 -84 245 -84t252 81t78 271v866h219v-850zM600 1604q0 -47 -34 -80t-81 -33t-79 33t-33 80q0 46 33 80q34 34 80 34t80 -34t34 -80zM1038 1604q0 -47 -32 -80t-80 -33
q-47 0 -80 33t-33 80q0 46 33 80t80 34q48 0 80 -34t32 -80z" />
    <glyph glyph-name="Yacute" unicode="&#xdd;" horiz-adv-x="1122" 
d="M668 0h-224v494l-432 888h244l205 -436q55 -123 98 -233h4q37 100 115 258l194 411h236l-440 -888v-494zM883 1589l-414 -112l-39 122l395 152z" />
    <glyph glyph-name="Thorn" unicode="&#xde;" horiz-adv-x="1099" 
d="M514 449q150 -1 235 73t85 206t-80 204t-246 72q-53 0 -125 -11v-536q51 -8 131 -8zM545 1186q244 0 381 -112t137 -325q0 -215 -157 -349t-408 -134q-78 0 -115 4v-270h-223v1382h223v-202q78 6 162 6z" />
    <glyph glyph-name="germandbls" unicode="&#xdf;" horiz-adv-x="1226" 
d="M1153 313q0 -149 -114 -241t-302 -92q-121 0 -209 24l15 186q88 -38 187 -38t149 38q49 38 49 96t-40 99t-97 72t-114 66q-56 36 -96 101q-40 64 -40 142q0 132 90 213q37 33 75 63q91 71 91 148q0 149 -176 147q-242 0 -242 -307v-1030h-219v1018q0 254 130 372t326 118
t302 -80q106 -79 106 -213t-92 -213q-39 -32 -77 -58q-91 -63 -91 -149q0 -85 137 -161q57 -32 115 -69t97 -101q40 -64 40 -151z" />
    <glyph glyph-name="agrave" unicode="&#xe0;" horiz-adv-x="1071" 
d="M692 1276l-88 -117l-336 227l111 146zM688 440v29q-389 0 -389 -180q0 -59 38 -99t101 -38q110 0 180 86t70 202zM702 0q0 119 11 188l-2 2q-39 -94 -129 -152t-214 -58t-202 78t-78 204q0 170 159 262t441 92v60q0 98 -48 145t-182 47t-274 -73l-43 176q178 67 384 67
t294 -87t88 -251v-421q0 -150 6 -279h-211z" />
    <glyph glyph-name="aacute" unicode="&#xe1;" horiz-adv-x="1071" 
d="M803 1386l-336 -227l-88 117l313 256zM688 440v29q-389 0 -389 -180q0 -59 38 -99t101 -38q110 0 180 86t70 202zM702 0q0 119 11 188l-2 2q-39 -94 -129 -152t-214 -58t-202 78t-78 204q0 170 159 262t441 92v60q0 98 -48 145t-182 47t-274 -73l-43 176q178 67 384 67
t294 -87t88 -251v-421q0 -150 6 -279h-211z" />
    <glyph glyph-name="acircumflex" unicode="&#xe2;" horiz-adv-x="1071" 
d="M829 1262l-92 -103l-207 170l-208 -170l-89 101l299 272zM688 440v29q-389 0 -389 -180q0 -59 38 -99t101 -38q110 0 180 86t70 202zM702 0q0 119 11 188l-2 2q-39 -94 -129 -152t-214 -58t-202 78t-78 204q0 170 159 262t441 92v60q0 98 -48 145t-182 47t-274 -73
l-43 176q178 67 384 67t294 -87t88 -251v-421q0 -150 6 -279h-211z" />
    <glyph glyph-name="atilde" unicode="&#xe3;" horiz-adv-x="1071" 
d="M645 1204q-73 0 -147 53t-109 54q-68 0 -119 -94l-106 83q86 170 235 170q74 0 148 -54t108 -54q66 0 119 94l107 -84q-88 -168 -236 -168zM688 440v29q-389 0 -389 -180q0 -59 38 -99t101 -38q110 0 180 86t70 202zM702 0q0 119 11 188l-2 2q-39 -94 -129 -152t-214 -58
t-202 78t-78 204q0 170 159 262t441 92v60q0 98 -48 145t-182 47t-274 -73l-43 176q178 67 384 67t294 -87t88 -251v-421q0 -150 6 -279h-211z" />
    <glyph glyph-name="adieresis" unicode="&#xe4;" horiz-adv-x="1071" 
d="M451 1334q0 -52 -37 -88t-88 -36t-87 36t-36 88t36 88t87 36t88 -36t37 -88zM852 1335q0 -51 -36 -88t-88 -37t-88 36t-36 88t37 88t88 36t87 -36t36 -87zM688 440v29q-389 0 -389 -180q0 -59 38 -99t101 -38q110 0 180 86t70 202zM702 0q0 119 11 188l-2 2
q-39 -94 -129 -152t-214 -58t-202 78t-78 204q0 170 159 262t441 92v60q0 98 -48 145t-182 47t-274 -73l-43 176q178 67 384 67t294 -87t88 -251v-421q0 -150 6 -279h-211z" />
    <glyph glyph-name="aring" unicode="&#xe5;" horiz-adv-x="1071" 
d="M639 1360q0 47 -32 80t-78 33q-45 0 -77 -33t-32 -80t32 -80t78 -33t77 33q32 33 32 80zM774 1361q0 -99 -72 -168t-174 -69t-173 67t-71 168t72 169t174 68t173 -68t71 -167zM688 440v29q-389 0 -389 -180q0 -59 38 -99t101 -38q110 0 180 86t70 202zM702 0
q0 119 11 188l-2 2q-39 -94 -129 -152t-214 -58t-202 78t-78 204q0 170 159 262t441 92v60q0 98 -48 145t-182 47t-274 -73l-43 176q178 67 384 67t294 -87t88 -251v-421q0 -150 6 -279h-211z" />
    <glyph glyph-name="ae" unicode="&#xe6;" horiz-adv-x="1646" 
d="M688 440v29q-389 0 -389 -180q0 -59 38 -99t101 -38q110 0 180 86t70 202zM1339 643q2 109 -53 171t-148 62q-94 0 -154 -62t-77 -171h432zM1559 598q0 -41 -7 -106h-649q-8 -336 301 -336q158 0 293 61l29 -172q-162 -65 -342 -65q-338 1 -426 223h-2q-46 -99 -146 -161
t-232 -62t-211 78t-79 204q0 170 159 262t441 92v60q0 98 -48 145t-182 47t-274 -73l-43 176q178 68 371 67q238 0 317 -143h2q49 63 131 103t181 40q209 0 313 -122t103 -318z" />
    <glyph glyph-name="ccedilla" unicode="&#xe7;" horiz-adv-x="882" 
d="M553 -82q145 -195 -43 -399h-170q82 100 90 171t-61 165zM530 -16q-453 0 -452 491q0 252 130 406t376 153q139 0 237 -39l-37 -186q-106 43 -223 43t-185 -96t-69 -256q0 -328 266 -328q127 0 220 45l32 -182q-123 -51 -295 -51z" />
    <glyph glyph-name="egrave" unicode="&#xe8;" horiz-adv-x="1046" 
d="M702 1276l-88 -117l-335 227l110 146zM739 643q2 109 -53 171t-149 62q-95 0 -155 -62t-75 -171h432zM958 598q0 -41 -6 -106h-649q-8 -336 301 -336q154 0 293 61l29 -172q-162 -66 -361 -65q-487 0 -487 522q0 238 124 388t336 148q212 0 316 -122t104 -318z" />
    <glyph glyph-name="eacute" unicode="&#xe9;" horiz-adv-x="1046" 
d="M813 1386l-336 -227l-88 117l313 256zM739 643q2 109 -53 171t-149 62q-95 0 -155 -62t-75 -171h432zM958 598q0 -41 -6 -106h-649q-8 -336 301 -336q154 0 293 61l29 -172q-162 -66 -361 -65q-487 0 -487 522q0 238 124 388t336 148q212 0 316 -122t104 -318z" />
    <glyph glyph-name="ecircumflex" unicode="&#xea;" horiz-adv-x="1046" 
d="M834 1262l-93 -103l-206 170l-209 -170l-88 101l299 272zM739 643q2 109 -53 171t-149 62q-95 0 -155 -62t-75 -171h432zM958 598q0 -41 -6 -106h-649q-8 -336 301 -336q154 0 293 61l29 -172q-162 -66 -361 -65q-487 0 -487 522q0 238 124 388t336 148q212 0 316 -122
t104 -318z" />
    <glyph glyph-name="edieresis" unicode="&#xeb;" horiz-adv-x="1046" 
d="M465 1334q0 -52 -36 -88t-88 -36t-88 36t-36 88t36 88t87 36t88 -36t37 -88zM866 1335q0 -51 -36 -88t-87 -37t-88 36t-37 88t37 88t88 36t87 -36t36 -87zM739 643q2 109 -53 171t-149 62q-95 0 -155 -62t-75 -171h432zM958 598q0 -41 -6 -106h-649q-8 -336 301 -336
q154 0 293 61l29 -172q-162 -66 -361 -65q-487 0 -487 522q0 238 124 388t336 148q212 0 316 -122t104 -318z" />
    <glyph glyph-name="igrave" unicode="&#xec;" horiz-adv-x="538" 
d="M469 1276l-88 -117l-336 227l111 146zM379 0h-219v1018h219v-1018z" />
    <glyph glyph-name="iacute" unicode="&#xed;" horiz-adv-x="538" 
d="M477 1386l-336 -227l-88 117l314 256zM379 0h-219v1018h219v-1018z" />
    <glyph glyph-name="icircumflex" unicode="&#xee;" horiz-adv-x="538" 
d="M569 1262l-92 -103l-207 170l-209 -170l-88 101l299 272zM379 0h-219v1018h219v-1018z" />
    <glyph glyph-name="idieresis" unicode="&#xef;" horiz-adv-x="538" 
d="M193 1334q0 -52 -37 -88t-88 -36t-87 36t-36 88t36 88t87 36t88 -36t37 -88zM594 1335q0 -51 -36 -88t-88 -37t-88 36t-36 88t37 88t88 36t87 -36t36 -87zM379 0h-219v1018h219v-1018z" />
    <glyph glyph-name="eth" unicode="&#xf0;" 
d="M817 517q0 337 -256 337q-109 0 -183 -87t-75 -253q0 -166 71 -256q70 -90 188 -90t187 90q68 91 68 259zM1044 563q0 -285 -139 -435t-357 -148q-218 0 -345 130t-127 376t135 398t350 150q141 0 193 -80q-2 6 -58 96t-121 160l-200 -88l-90 107l184 82q-61 53 -162 127
l217 92q82 -66 148 -131l194 84l90 -109l-188 -82q276 -332 276 -729z" />
    <glyph glyph-name="ntilde" unicode="&#xf1;" horiz-adv-x="1173" 
d="M717 1204q-74 0 -148 53t-108 54q-68 0 -119 -94l-106 83q86 170 235 170q73 0 147 -54t109 -54q66 0 119 94l106 -84q-88 -168 -235 -168zM1014 0h-217v653q0 99 -34 151t-118 52q-115 0 -191 -105t-75 -262v-489h-219v1018h209q0 -121 -15 -201h2q46 101 138 161
t217 60q303 0 303 -325v-713z" />
    <glyph glyph-name="ograve" unicode="&#xf2;" horiz-adv-x="1124" 
d="M735 1276l-88 -117l-336 227l111 146zM821 514q0 340 -258 340q-109 0 -185 -86t-77 -250q0 -350 260 -350q113 0 187 89q73 89 73 257zM1047 538q1 -248 -141 -404t-363 -154q-221 0 -345 128t-124 376t140 402t362 152q222 0 346 -126q125 -126 125 -374z" />
    <glyph glyph-name="oacute" unicode="&#xf3;" horiz-adv-x="1124" 
d="M842 1386l-336 -227l-88 117l313 256zM821 514q0 340 -258 340q-109 0 -185 -86t-77 -250q0 -350 260 -350q113 0 187 89q73 89 73 257zM1047 538q1 -248 -141 -404t-363 -154q-221 0 -345 128t-124 376t140 402t362 152q222 0 346 -126q125 -126 125 -374z" />
    <glyph glyph-name="ocircumflex" unicode="&#xf4;" horiz-adv-x="1124" 
d="M862 1262l-92 -103l-207 170l-209 -170l-88 101l299 272zM821 514q0 340 -258 340q-109 0 -185 -86t-77 -250q0 -350 260 -350q113 0 187 89q73 89 73 257zM1047 538q1 -248 -141 -404t-363 -154q-221 0 -345 128t-124 376t140 402t362 152q222 0 346 -126
q125 -126 125 -374z" />
    <glyph glyph-name="otilde" unicode="&#xf5;" horiz-adv-x="1124" 
d="M674 1204q-74 0 -148 53t-108 54q-68 0 -119 -94l-106 83q86 170 235 170q74 0 148 -54t108 -54q66 0 119 94l106 -84q-88 -168 -235 -168zM821 514q0 340 -258 340q-109 0 -185 -86t-77 -250q0 -350 260 -350q113 0 187 89q73 89 73 257zM1047 538q1 -248 -141 -404
t-363 -154q-221 0 -345 128t-124 376t140 402t362 152q222 0 346 -126q125 -126 125 -374z" />
    <glyph glyph-name="odieresis" unicode="&#xf6;" horiz-adv-x="1124" 
d="M362 1458q51 0 88 -36t37 -88q-1 -52 -37 -88t-88 -36t-87 36t-35 88t35 88q36 36 87 36zM889 1335q0 -51 -36 -88t-88 -37t-88 36t-36 88t37 88t88 36t87 -36t36 -87zM821 514q0 340 -258 340q-109 0 -185 -86t-77 -250q0 -350 260 -350q113 0 187 89q73 89 73 257z
M1047 538q1 -248 -141 -404t-363 -154q-221 0 -345 128t-124 376t140 402t362 152q222 0 346 -126q125 -126 125 -374z" />
    <glyph glyph-name="divide" unicode="&#xf7;" 
d="M700 198q0 -58 -41 -100t-98 -41q-57 0 -99 41q-42 40 -42 98t42 100t99 42t98 -41t41 -99zM1042 518h-958v182h958v-182zM700 1020q0 -57 -41 -98t-99 -41t-99 41t-41 98t41 98t99 41t99 -41t41 -98z" />
    <glyph glyph-name="oslash" unicode="&#xf8;" horiz-adv-x="1124" 
d="M604 858q-45 4 -69 2q-103 -8 -177 -91t-74 -263t85 -264zM838 532q0 188 -109 271l-242 -631q43 -16 97 -12q110 4 182 94t72 278zM1047 528q1 -238 -141 -394t-365 -154q-63 0 -119 16l-82 -211l-133 41l82 211q-215 125 -215 459q0 238 140 390t368 152q29 0 90 -8
l73 193l134 -43l-74 -187q242 -115 242 -465z" />
    <glyph glyph-name="ugrave" unicode="&#xf9;" horiz-adv-x="1173" 
d="M698 1276l-88 -117l-336 227l111 146zM1014 0h-209q0 121 14 201h-2q-47 -101 -138 -161t-216 -60q-303 0 -303 325v713h217v-653q0 -99 34 -151t117 -52q115 0 191 105t76 261v490h219v-1018z" />
    <glyph glyph-name="uacute" unicode="&#xfa;" horiz-adv-x="1173" 
d="M918 1386l-336 -227l-88 117l313 256zM1014 0h-209q0 121 14 201h-2q-47 -101 -138 -161t-216 -60q-303 0 -303 325v713h217v-653q0 -99 34 -151t117 -52q115 0 191 105t76 261v490h219v-1018z" />
    <glyph glyph-name="ucircumflex" unicode="&#xfb;" horiz-adv-x="1173" 
d="M879 1262l-93 -103l-206 170l-209 -170l-88 101l299 272zM1014 0h-209q0 121 14 201h-2q-47 -101 -138 -161t-216 -60q-303 0 -303 325v713h217v-653q0 -99 34 -151t117 -52q115 0 191 105t76 261v490h219v-1018z" />
    <glyph glyph-name="udieresis" unicode="&#xfc;" horiz-adv-x="1173" 
d="M500 1334q0 -52 -37 -88t-88 -36t-87 36t-36 88t36 88t87 36t88 -36t37 -88zM901 1335q0 -51 -36 -88t-88 -37t-88 36t-36 88t37 88t88 36t87 -36t36 -87zM1014 0h-209q0 121 14 201h-2q-47 -101 -138 -161t-216 -60q-303 0 -303 325v713h217v-653q0 -99 34 -151t117 -52
q115 0 191 105t76 261v490h219v-1018z" />
    <glyph glyph-name="yacute" unicode="&#xfd;" horiz-adv-x="1003" 
d="M819 1386l-336 -227l-88 117l314 256zM86 -516q-59 0 -129 12l25 191q55 -16 124 -17q168 0 254 230l37 100l-381 1018h246l166 -465q37 -100 80 -266h2q31 127 100 317l146 414h235l-411 -1090q-94 -250 -205 -347t-289 -97z" />
    <glyph glyph-name="thorn" unicode="&#xfe;" horiz-adv-x="1142" 
d="M831 539q0 319 -200 319q-115 0 -184 -112t-68 -254v-314q68 -20 160 -20q292 0 292 381zM688 1038q180 0 278 -124t97 -374q0 -250 -138 -403q-138 -152 -393 -151q-90 0 -153 12v-498h-219v1995h219v-434q0 -133 -12 -219h4q41 90 123 143t194 53z" />
    <glyph glyph-name="ydieresis" unicode="&#xff;" horiz-adv-x="1003" 
d="M426 1334q0 -52 -37 -88t-88 -36t-87 36t-36 88t36 88t87 36t88 -36t37 -88zM827 1335q1 -51 -35 -88t-88 -37t-89 36q-35 36 -35 88t36 88t88 36t88 -36t35 -87zM86 -516q-59 0 -129 12l25 191q55 -16 124 -17q168 0 254 230l37 100l-381 1018h246l166 -465
q37 -100 80 -266h2q31 127 100 317l146 414h235l-411 -1090q-94 -250 -205 -347t-289 -97z" />
    <glyph glyph-name="dotlessi" unicode="&#x131;" horiz-adv-x="538" 
d="M379 0h-219v1018h219v-1018z" />
    <glyph glyph-name="Lslash" unicode="&#x141;" horiz-adv-x="901" 
d="M885 0h-697v559l-168 -57l-34 166l202 67v647h224v-581l225 73l33 -167l-258 -84v-428h473v-195z" />
    <glyph glyph-name="lslash" unicode="&#x142;" horiz-adv-x="608" 
d="M412 0h-217v567l-177 -59l-24 166l201 67v754h217v-692l178 59l24 -168l-202 -65v-629z" />
    <glyph glyph-name="OE" unicode="&#x152;" horiz-adv-x="1765" 
d="M315 699q-1 -241 101 -381t301 -140q92 0 190 31v969q-90 29 -184 28q-172 0 -290 -133t-118 -374zM1636 0h-712q-119 -20 -224 -20q-306 0 -464 185t-158 515t189 526t468 197q117 0 211 -21h690v-186h-506v-393h480v-182h-480v-431h506v-190z" />
    <glyph glyph-name="oe" unicode="&#x153;" horiz-adv-x="1775" 
d="M821 514q0 340 -258 340q-109 0 -185 -86t-77 -250q0 -350 260 -350q113 0 187 89q73 89 73 257zM1468 643q2 109 -53 171t-148 62t-155 -62q-62 -64 -76 -171h432zM1688 598q0 -41 -7 -106h-649q-8 -336 301 -336q154 0 293 61l29 -172q-162 -66 -361 -65
q-272 0 -385 190q-127 -190 -358 -190t-354 126t-123 376t139 404t369 152q108 0 202 -44t150 -130q119 174 332 174q214 0 318 -122t104 -318z" />
    <glyph glyph-name="Scaron" unicode="&#x160;" horiz-adv-x="1030" 
d="M942 414q0 -190 -143 -312t-377 -122q-172 0 -311 38l24 213q147 -57 281 -57t209 52t75 146t-62 144q-62 51 -152 84t-178 73q-89 40 -151 122t-63 204q0 182 132 293t368 111q127 0 250 -27l-23 -196q-117 39 -241 39q-124 1 -186 -51q-64 -52 -64 -135t63 -134
t153 -85t179 -75t153 -123t64 -202zM860 1651l-330 -176l-331 172l57 114l279 -125l272 125z" />
    <glyph glyph-name="scaron" unicode="&#x161;" horiz-adv-x="862" 
d="M743 1432l-299 -273l-297 271l93 102l206 -170l207 170zM770 311q0 -147 -119 -239t-319 -92q-127 0 -226 28l17 187q101 -39 205 -39t158 36t54 94q0 60 -45 93q-46 33 -112 52q-65 19 -131 45t-112 87t-46 160q0 139 106 227t310 88q94 0 192 -20l-12 -176
q-92 29 -192 28q-178 0 -179 -127q1 -55 47 -88t112 -53t134 -47q66 -27 112 -89t46 -155z" />
    <glyph glyph-name="Ydieresis" unicode="&#x178;" horiz-adv-x="1122" 
d="M668 0h-224v494l-432 888h244l205 -436q55 -123 98 -233h4q37 100 115 258l194 411h236l-440 -888v-494zM446 1604q0 -47 -32 -80t-80 -33q-47 0 -80 33t-33 80q0 46 33 80t80 34q48 0 80 -34t32 -80zM887 1604q0 -47 -34 -80t-81 -33t-80 33t-33 80q0 46 33 80t80 34
t81 -34t34 -80z" />
    <glyph glyph-name="Zcaron" unicode="&#x17d;" horiz-adv-x="1101" 
d="M1012 0h-920v170l545 866q45 72 102 150q-59 -2 -280 -2h-346v198h891v-176l-574 -895q-23 -37 -72 -110q37 4 324 4h330v-205zM909 1651l-329 -176l-334 172l59 114l279 -125l272 125z" />
    <glyph glyph-name="zcaron" unicode="&#x17e;" horiz-adv-x="919" 
d="M760 1432l-299 -273l-297 271l92 102l207 -170l207 170zM817 0h-721v156l453 669q-102 -4 -246 -4h-197v197h703v-154l-447 -667q102 4 256 4h199v-201z" />
    <glyph glyph-name="florin" unicode="&#x192;" 
d="M847 1260q-87 0 -133 -54t-59 -178l-26 -283h299v-170h-316l-45 -475q-20 -221 -130 -324t-308 -104q-96 0 -188 25l28 184q109 -31 191 -31q167 0 186 230l47 495h-233v170h250l26 265q23 221 131 324q109 103 307 104q87 0 185 -25l-27 -186q-98 33 -185 33z" />
    <glyph glyph-name="circumflex" unicode="&#x2c6;" horiz-adv-x="880" 
d="M735 1262l-92 -103l-207 170l-209 -170l-88 101l299 272z" />
    <glyph glyph-name="caron" unicode="&#x2c7;" horiz-adv-x="880" 
d="M731 1432l-299 -273l-297 271l92 102l207 -170l207 170z" />
    <glyph glyph-name="breve" unicode="&#x2d8;" horiz-adv-x="794" 
d="M664 1477q0 -125 -69 -208t-202 -83t-199 84t-65 207h147q0 -55 31 -91t87 -36t88 32t32 95h150z" />
    <glyph glyph-name="dotaccent" unicode="&#x2d9;" horiz-adv-x="583" 
d="M426 1335q0 -57 -41 -97t-100 -40t-100 40q-40 40 -40 97t41 97q42 40 100 41q58 -1 99 -41t41 -97z" />
    <glyph glyph-name="ring" unicode="&#x2da;" horiz-adv-x="768" 
d="M494 1327q0 47 -32 80t-78 33t-78 -33t-32 -80t32 -80t78 -33t78 33t32 80zM629 1328q0 -99 -72 -168q-72 -68 -174 -68t-173 66t-71 168q0 101 72 169t174 68t173 -68t71 -167z" />
    <glyph glyph-name="ogonek" unicode="&#x2db;" horiz-adv-x="618" 
d="M274 -213q0 -61 60 -61t110 59l88 -100q-109 -129 -270 -129q-102 0 -153 48t-51 122t42 146q43 72 123 128h234q-183 -97 -183 -213z" />
    <glyph glyph-name="tilde" unicode="&#x2dc;" horiz-adv-x="989" 
d="M614 1204q-74 0 -148 53t-108 54q-68 0 -118 -94l-107 83q86 170 236 170q73 0 147 -54t109 -54q66 0 118 94l107 -84q-88 -168 -236 -168z" />
    <glyph glyph-name="hungarumlaut" unicode="&#x2dd;" horiz-adv-x="1019" 
d="M526 1440l-278 -281l-105 90l252 301zM918 1419l-300 -260l-100 90l277 287z" />
    <glyph glyph-name="Delta" unicode="&#x394;" horiz-adv-x="1515" 
d="M1133 199l-388 964l-378 -964h766zM1456 0h-1395l582 1434h225z" />
    <glyph glyph-name="Omega" unicode="&#x3a9;" horiz-adv-x="1533" 
d="M1399 0h-502v162q272 180 272 551q0 225 -105 369q-104 144 -294 144t-303 -140t-113 -351t66 -343t211 -228v-164h-504v164h283q-272 182 -273 553q0 301 178 493q177 192 459 193q282 0 450 -175t169 -491q0 -184 -77 -336t-206 -237h289v-164z" />
    <glyph glyph-name="mu" unicode="&#x3bc;" horiz-adv-x="1292" 
d="M532 -16q-104 0 -165 51l32 -535h-229v1518h217v-643q0 -103 37 -157q36 -54 136 -54t172 98t73 240v516h219v-705q0 -96 13 -128t46 -31q53 0 84 69l88 -92q-76 -152 -251 -151q-98 0 -137 61q-38 61 -29 147h-2q-37 -92 -118 -148q-82 -56 -186 -56z" />
    <glyph glyph-name="pi" unicode="&#x3c0;" horiz-adv-x="1372" 
d="M840 258v584h-340v-842h-205v842h-213v176h1178v-176h-213v-443q0 -166 20 -212q21 -46 77 -46t118 17l14 -156q-86 -22 -210 -22t-175 66t-51 212z" />
    <glyph glyph-name="endash" unicode="&#x2013;" 
d="M1126 514h-1126v191h1126v-191z" />
    <glyph glyph-name="emdash" unicode="&#x2014;" horiz-adv-x="2048" 
d="M1812 514h-1576v191h1576v-191z" />
    <glyph glyph-name="quoteleft" unicode="&#x2018;" horiz-adv-x="520" 
d="M251 942q-87 0 -128 82t11 227t214 289l92 -82q-178 -190 -86 -303q52 -59 18 -136t-121 -77z" />
    <glyph glyph-name="quoteright" unicode="&#x2019;" horiz-adv-x="520" 
d="M266 1526q88 0 129 -82t-12 -227t-213 -289l-92 82q174 190 86 303q-53 59 -20 136q34 77 122 77z" />
    <glyph glyph-name="quotesinglbase" unicode="&#x201a;" horiz-adv-x="520" 
d="M266 264q88 0 129 -82t-12 -227t-213 -289l-92 82q176 193 86 303q-53 61 -20 137q34 76 122 76z" />
    <glyph glyph-name="quotedblleft" unicode="&#x201c;" horiz-adv-x="935" 
d="M251 942q-87 0 -128 82t11 227t214 289l92 -82q-178 -190 -86 -303q52 -59 18 -136t-121 -77zM664 942q-86 0 -127 82t12 227t215 289l92 -82q-178 -190 -86 -303q51 -59 16 -136q-36 -77 -122 -77z" />
    <glyph glyph-name="quotedblright" unicode="&#x201d;" horiz-adv-x="935" 
d="M266 1526q88 0 129 -82t-12 -227t-213 -289l-92 82q174 190 86 303q-53 59 -20 136q34 77 122 77zM683 1526q87 0 128 -82t-12 -227t-215 -289l-92 82q178 190 86 303q-51 59 -17 136q35 77 122 77z" />
    <glyph glyph-name="quotedblbase" unicode="&#x201e;" horiz-adv-x="935" 
d="M266 264q88 0 129 -82t-12 -227t-213 -289l-92 82q176 193 86 303q-53 61 -20 137q34 76 122 76zM682 264q88 0 129 -82t-12 -227t-215 -289l-92 82q178 193 86 303q-51 61 -18 137q34 76 122 76z" />
    <glyph glyph-name="dagger" unicode="&#x2020;" horiz-adv-x="925" 
d="M834 1118h-283l39 -190l-43 -518h-168l-43 518l39 190h-283v170h283l-39 281h254l-39 -281h283v-170z" />
    <glyph glyph-name="daggerdbl" unicode="&#x2021;" horiz-adv-x="925" 
d="M834 598h-281l39 -260h-258l39 260h-281v168h281l-37 186l37 189h-281v168h281l-37 260h254l-37 -260h281v-168h-281l37 -189l-37 -186h281v-168z" />
    <glyph glyph-name="bullet" unicode="&#x2022;" horiz-adv-x="862" 
d="M705 608q0 -112 -80 -192t-193 -80q-112 0 -192 80t-80 192t80 193q80 80 192 80t193 -80q80 -80 80 -193z" />
    <glyph glyph-name="ellipsis" unicode="&#x2026;" horiz-adv-x="1415" 
d="M383 119q0 -57 -42 -99t-99 -40q-57 0 -99 40q-41 40 -41 98t41 100t99 42t99 -42q42 -42 42 -99zM840 119q0 -57 -42 -99t-100 -40q-58 0 -98 40q-41 40 -41 98t41 100t99 42q57 0 99 -42t42 -99zM1296 119q0 -57 -41 -99t-98 -40q-57 0 -99 40t-42 98t41 100t99 42
t99 -42t41 -99z" />
    <glyph glyph-name="perthousand" unicode="&#x2030;" horiz-adv-x="2123" 
d="M90 1024q0 148 86 238t211 90t201 -74t76 -226q0 -153 -86 -243t-212 -90t-201 78t-75 227zM500 1042q0 168 -119 168q-57 0 -91 -47t-34 -127q0 -176 121 -176q55 0 89 48t34 134zM1325 1264l-1073 -1301l-133 103l1073 1300zM1356 312q0 -152 -86 -242t-212 -90
t-201 76t-75 228t86 240t211 88t201 -74t76 -226zM1192 297q0 174 -119 174q-57 0 -91 -47t-34 -129q0 -174 121 -174q55 0 89 47t34 129zM2017 312q0 -152 -86 -242t-213 -90q-126 0 -200 76t-74 228t86 240t211 88t201 -73q75 -74 75 -227zM1853 297q0 174 -120 174
q-55 0 -89 -47t-34 -129q0 -174 119 -174q57 0 91 47q33 47 33 129z" />
    <glyph glyph-name="guilsinglleft" unicode="&#x2039;" horiz-adv-x="641" 
d="M506 307l-170 -86l-238 379l240 383l166 -84l-193 -299z" />
    <glyph glyph-name="guilsinglright" unicode="&#x203a;" horiz-adv-x="641" 
d="M543 604l-242 -383l-164 84l193 299l-193 293l170 86z" />
    <glyph glyph-name="fraction" unicode="&#x2044;" horiz-adv-x="872" 
d="M1034 1319l-993 -1380l-158 112l994 1383z" />
    <glyph glyph-name="uni20AC" unicode="&#x20ac;" 
d="M23 444v140h161q-2 18 -2 57t4 113h-163v139h184q43 213 180 336t375 123q147 0 282 -54l-53 -174q-113 53 -252 54q-240 0 -305 -285h365v-139h-389q-2 -29 -2 -88v-82h391v-140h-371q53 -286 318 -286q133 0 262 57l51 -168q-153 -67 -359 -67q-437 1 -503 464h-174z
" />
    <glyph glyph-name="trademark" unicode="&#x2122;" horiz-adv-x="1421" 
d="M526 1249h-143v-442h-160v442h-147v133h450v-133zM1331 807h-166l-41 278l-12 103l-20 -92l-82 -289h-156l-80 295l-20 86l-6 -74l-43 -307h-152l90 575h199l80 -286l20 -90l16 84l84 292h197z" />
    <glyph glyph-name="partialdiff" unicode="&#x2202;" horiz-adv-x="1302" 
d="M877 472q0 118 -65 186q-66 67 -184 67t-194 -84t-76 -209q0 -126 64 -192t178 -66q115 0 196 90t81 208zM1163 827q0 -424 -198 -659q-158 -184 -400 -184q-205 0 -315 116t-109 322q1 207 139 347t355 140t301 -166q-2 29 -4 80t-4 76q-16 207 -135 318t-301 108
l26 182q295 -3 470 -185t175 -495z" />
    <glyph glyph-name="product" unicode="&#x220f;" horiz-adv-x="1605" 
d="M1516 1309h-207v-1809h-207v1809h-596v-1809h-209v1809h-209v186h1428v-186z" />
    <glyph glyph-name="summation" unicode="&#x2211;" horiz-adv-x="1245" 
d="M1137 -500h-1063v170l616 846l-579 809v170h995v-186h-723l561 -785l-610 -831h803v-193z" />
    <glyph glyph-name="minus" unicode="&#x2212;" 
d="M1042 514h-958v191h958v-191z" />
    <glyph glyph-name="radical" unicode="&#x221a;" horiz-adv-x="1253" 
d="M4 852v166h363l180 -563q45 -143 63 -217h4q20 106 50 202l307 1112h239l-477 -1552h-254l-293 852h-182z" />
    <glyph glyph-name="infinity" unicode="&#x221e;" horiz-adv-x="2004" 
d="M494 780q-82 0 -128 -48t-46 -121t46 -119q48 -46 132 -48q112 0 333 164q-227 172 -337 172zM1513 444q83 0 129 48t46 121t-48 120t-133 47q-115 0 -333 -166q225 -170 339 -170zM1901 620q-1 -154 -107 -260t-302 -106t-497 227q-141 -107 -264 -167t-248 -60
q-182 0 -280 99q-99 99 -99 254t109 259t283 105q207 0 514 -230q304 229 496 229t294 -97q102 -98 101 -253z" />
    <glyph glyph-name="integral" unicode="&#x222b;" horiz-adv-x="698" 
d="M546 1321q-64 0 -92 -60q-30 -59 -30 -227t12 -481t12 -567t-79 -380q-80 -126 -248 -126q-45 0 -111 12v193q47 -14 94 -15q76 0 108 60t32 222q0 160 -12 476t-13 574q0 508 332 507q49 0 106 -14v-188q-47 14 -111 14z" />
    <glyph glyph-name="approxequal" unicode="&#x2248;" 
d="M764 264q-100 0 -217 60t-200 61q-83 0 -187 -88l-74 149q135 123 270 123q96 0 217 -61q121 -62 213 -62t183 82l71 -149q-129 -115 -276 -115zM766 641q-94 0 -211 60q-117 61 -206 61t-191 -86l-72 149q133 121 281 121q98 0 219 -61t184 -62q94 0 197 92l71 -149
q-121 -125 -272 -125z" />
    <glyph glyph-name="notequal" unicode="&#x2260;" 
d="M1024 336h-473l-107 -268h-194l106 268h-254v178h324l76 188h-400v179h469l109 272h197l-109 -272h256v-179h-328l-75 -188h403v-178z" />
    <glyph glyph-name="lessequal" unicode="&#x2264;" 
d="M985 0h-844v182h844v-182zM961 432l-132 -156l-714 517l712 516l134 -150l-545 -364z" />
    <glyph glyph-name="greaterequal" unicode="&#x2265;" 
d="M985 0h-844v182h844v-182zM1012 795l-713 -519l-133 150l545 367l-545 360l131 156z" />
    <glyph glyph-name="lozenge" unicode="&#x25ca;" horiz-adv-x="1273" 
d="M977 678l-350 483l-328 -459l348 -481zM1217 686l-506 -704h-138l-516 714l510 705h133z" />
    <glyph glyph-name="fi" unicode="&#xfb01;" horiz-adv-x="1212" 
d="M1053 0h-217v848h-408v-848h-217v848h-195v170h195v41q0 451 485 450q150 0 301 -39l-39 -182q-129 41 -249 41q-281 0 -281 -252v-59h625v-1018z" />
    <glyph glyph-name="fl" unicode="&#xfb02;" horiz-adv-x="1212" 
d="M1053 0h-217v1317q-78 14 -182 14q-226 0 -226 -219v-94h254v-170h-254v-848h-217v848h-195v170h195v108q0 180 119 282t364 101q162 0 359 -32v-1477z" />
    <glyph glyph-name="HT" horiz-adv-x="1441" 
 />
    <glyph glyph-name="Euro" 
d="M23 444v140h161q-2 18 -2 57t4 113h-163v139h184q43 213 180 336t375 123q147 0 282 -54l-53 -174q-113 53 -252 54q-240 0 -305 -285h365v-139h-389q-2 -29 -2 -88v-82h391v-140h-371q53 -286 318 -286q133 0 262 57l51 -168q-153 -67 -359 -67q-437 1 -503 464h-174z
" />
    <glyph glyph-name="apple" horiz-adv-x="2134" 
d="M39 766l283 -25q-4 -53 0 -102l-283 -25q-6 76 0 152zM1087 727q4 0 5 10q0 10 -5 11q6 -11 0 -21zM1085 741q-6 0 -3 -4t-1 -4v-2q6 2 4 8v2zM1075 733v-2h2v6q0 10 -8 2q4 0 6 -2q-4 0 -6 -4h6zM1065 738q0 -10 4 -11q-6 10 0 21q-4 0 -4 -10zM1061 733q-2 0 -2 2t2 4
v2q-4 2 -4 -3t4 -7v2zM1053 741h-2v-6h-2v6h-2v-6q2 -4 6 0v6zM1044 731v2h-4v12h-2v-14h6zM1327 -94l-31 69l-487 -125l49 -120h420l27 61l-13 25l-147 -39l-27 76zM1325 70l-31 75l-487 -125l31 -73zM1321 297h-508v-104l31 -74l477 121v57zM1067 686q-53 0 -86 -4
l29 -289h114l29 289q-33 4 -86 4zM1067 791q121 0 270 -41q11 -2 15 -32t-5 -56t-33 -16q-24 9 -75 22l-29 -275h113q135 123 135 291t-115 283t-275 115t-276 -116q-114 -114 -114 -286t137 -287h111l-31 275q-17 -4 -44 -15q-27 -10 -39 -14t-22 21q-9 26 -6 56
q4 30 17 34q145 41 266 41zM559 695q1 207 149 355t359 148t361 -148t149 -358q0 -209 -137 -350v-160l-33 -10l66 -154l-64 -16l64 -147l-66 -17l20 -51l-61 -141h-111q-6 -41 -59 -68t-129 -27t-129 27t-57 68h-111l-106 256l63 18l-65 154l71 18l-39 92v160
q-135 145 -135 351zM2095 764q6 -68 2 -148l-278 23q4 51 0 102zM1554 1249l179 211q74 -66 104 -106l-209 -176q-41 44 -74 71zM1120 1415q-35 4 -104 0l-23 273q61 8 150 0zM297 1358q61 68 106 104l181 -215q-27 -18 -74 -71z" />
    <glyph glyph-name="Grave" horiz-adv-x="759" 
d="M598 1599l-39 -122l-412 112l56 162z" />
    <glyph glyph-name="Acute" horiz-adv-x="800" 
d="M621 1589l-412 -112l-39 122l395 152z" />
    <glyph glyph-name="Dieresis" horiz-adv-x="1118" 
d="M430 1604q0 -47 -33 -80t-80 -33t-79 33t-33 80q0 46 33 80q34 34 80 34t79 -34t33 -80zM870 1604q0 -47 -34 -80t-79 -33q-46 0 -79 33t-33 80q0 46 33 80t80 34q48 0 80 -34t32 -80z" />
    <glyph glyph-name="Circumflex" horiz-adv-x="880" 
d="M768 1589l-57 -114l-281 124l-272 -124l-54 110l330 176z" />
    <glyph glyph-name="Tilde" horiz-adv-x="989" 
d="M641 1499q-76 0 -154 51t-114 52q-70 0 -123 -91l-111 76q90 160 242 160q76 0 154 -51t112 -51q70 0 125 90l111 -78q-92 -158 -242 -158z" />
    <glyph glyph-name="Caron" horiz-adv-x="880" 
d="M764 1651l-330 -176l-332 172l58 114l278 -125l273 125z" />
  </font>
</defs>
</svg>
